<?xml version="1.0" encoding="UTF-8" standalone="no"?>
<svg
   width="852"
   height="1231"
   viewBox="0 0 852 1231"
   version="1.1"
   id="svg2"
   sodipodi:docname="back view 3.svg"
   inkscape:version="1.4.3 (0d15f75, 2025-12-25)"
   xmlns:inkscape="http://www.inkscape.org/namespaces/inkscape"
   xmlns:sodipodi="http://sodipodi.sourceforge.net/DTD/sodipodi-0.dtd"
   xmlns:xlink="http://www.w3.org/1999/xlink"
   xmlns="http://www.w3.org/2000/svg"
   xmlns:svg="http://www.w3.org/2000/svg">
  <defs
     id="defs2">
    <linearGradient
       id="swatch38"
       inkscape:swatch="solid">
      <stop
         style="stop-color:#222222;stop-opacity:1;"
         offset="0"
         id="stop38" />
    </linearGradient>
    <linearGradient
       inkscape:collect="always"
       xlink:href="#swatch38"
       id="linearGradient38"
       x1="294.09211"
       y1="681.89874"
       x2="559.02143"
       y2="681.89874"
       gradientUnits="userSpaceOnUse" />
  </defs>
  <sodipodi:namedview
     id="namedview2"
     pagecolor="#ffffff"
     bordercolor="#000000"
     borderopacity="0.25"
     inkscape:showpageshadow="2"
     inkscape:pageopacity="0.0"
     inkscape:pagecheckerboard="0"
     inkscape:deskcolor="#d1d1d1"
     inkscape:zoom="0.94800975"
     inkscape:cx="475.20608"
     inkscape:cy="537.96915"
     inkscape:window-width="1278"
     inkscape:window-height="1360"
     inkscape:window-x="1266"
     inkscape:window-y="0"
     inkscape:window-maximized="0"
     inkscape:current-layer="biceps-foot" />
  <g
     id="ikri"
     inkscape:label="ikri"
     style="display:inline;fill:#222222;fill-opacity:1">
    <path
       style="display:inline;fill:#222222;stroke-width:2.84807;fill-opacity:1"
       d="m 501.86662,972.99295 c -5.57597,-2.76006 -8.16635,-6.90221 -10.91396,-17.45193 -3.14402,-12.0718 -3.74717,-28.83618 -1.56859,-43.59873 2.07149,-14.03682 4.71473,-20.95589 9.66659,-25.30368 5.28635,-4.64147 9.32427,-4.97389 19.82046,-1.63169 11.57073,3.68435 15.15419,3.14549 23.45989,-3.52775 9.63648,-7.74248 11.14398,-8.59785 15.15271,-8.59785 5.36339,0 8.28554,2.53486 11.76282,10.20385 7.34674,16.20287 10.68744,40.56763 8.41031,61.33889 -1.97755,18.03861 -7.91154,27.61236 -17.11466,27.61236 -5.97775,0 -7.86086,-1.18673 -16.40104,-10.33591 -7.06897,-7.57305 -7.72094,-8.01407 -10.41687,-7.0464 -2.01404,0.72291 -4.2214,3.40319 -7.36551,8.94358 -2.50839,4.42015 -5.82485,8.72346 -7.51544,9.75173 -4.11027,2.49999 -11.52033,2.3444 -16.97671,-0.35647 z"
       id="calf-left"
       inkscape:label="left_ikra" />
    <path
       style="display:inline;fill:#222222;fill-opacity:1;stroke-width:2.84807"
       d="m 333.74961,972.79134 c -1.97133,-1.32528 -5.05959,-4.7667 -6.86281,-7.6476 -5.05899,-8.08244 -8.18148,-11.01749 -10.95069,-10.29332 -1.29982,0.33991 -4.53344,3.41253 -7.18583,6.82805 -2.65239,3.41551 -6.33261,7.14331 -8.17826,8.28399 -6.70634,4.14474 -13.82663,1.98498 -18.81405,-5.70676 -4.79664,-7.39752 -5.36508,-11.14844 -5.29502,-34.94036 0.0703,-23.86337 0.91501,-29.13166 7.40083,-46.15584 3.11191,-8.16824 5.47099,-10.27818 11.49183,-10.27818 4.71363,0 7.10894,1.33573 14.37958,8.01867 6.56852,6.03759 11.69503,7.38684 19.6721,5.17753 12.25816,-3.39499 14.36,-3.7788 17.23527,-3.14728 10.19537,2.23928 15.26153,15.23762 16.43429,42.16573 0.95787,21.99415 -2.00849,37.70491 -8.43793,44.68986 -5.25812,5.71243 -14.81707,7.08775 -20.88931,3.00551 z"
       id="calf-right"
       inkscape:label="right_ikra" />
  </g>
  <g
     id="biceps-foot"
     inkscape:label="biceps_foot"
     style="display:inline;fill-rule:nonzero;opacity:1;fill:url(#linearGradient38)">
    <path
       style="display:inline;fill:url(#linearGradient38);stroke-width:2.84807;fill-rule:nonzero"
       d="m 354.95416,830.40008 c -4.00071,-1.9894 -6.17537,-7.65789 -8.01537,-20.89293 -1.76635,-12.70532 -2.75341,-15.73894 -5.12099,-15.73894 -3.31379,0 -5.01855,1.68442 -10.11387,9.99317 -7.71108,12.57418 -9.28552,13.99068 -14.72407,13.24692 -7.52839,-1.02955 -15.51634,-21.16027 -20.73229,-52.24823 -2.85359,-17.00791 -2.88088,-96.08496 -0.0397,-114.97772 3.62946,-24.13434 8.08285,-41.37782 16.7405,-64.81911 2.8818,-7.8027 5.96742,-17.40944 6.85693,-21.34832 0.88951,-3.93888 3.01966,-9.27879 4.73367,-11.86646 2.72974,-4.12117 20.18807,-19.58094 22.11225,-19.58094 0.39386,0 -0.61469,2.49207 -2.24122,5.53792 -4.03422,7.55449 -9.95433,23.77798 -13.11288,35.93457 -7.72464,29.73054 -5.48819,44.41042 8.84932,58.08609 10.4764,9.99279 18.39896,12.81165 40.43398,14.38646 7.57719,0.54154 14.25499,1.46289 14.83955,2.04745 0.58457,0.58456 1.61159,6.17285 2.28227,12.41843 0.92112,8.57771 2.03103,13.19695 4.53718,18.88284 4.31208,9.78314 5.8664,17.30265 5.03636,24.3649 -0.36847,3.13512 -3.70883,15.27972 -7.42302,26.988 -8.32597,26.246 -11.20022,36.93389 -15.33332,57.01682 -5.73278,27.85588 -7.46661,32.52225 -14.31954,38.53921 -6.09502,5.35149 -10.33443,6.47208 -15.24576,4.02987 z"
       id="hamstring-left"
       inkscape:label="left_biceps_foot" />
    <path
       style="display:inline;fill:url(#linearGradient38);stroke-width:2.84807;fill-rule:nonzero"
       d="m 487.86418,831.00538 c -2.48611,-0.89651 -10.55071,-8.96609 -12.31229,-12.3199 -2.36144,-4.49585 -4.01687,-10.76999 -8.24437,-31.24632 -4.56804,-22.12575 -7.31382,-32.65278 -14.78786,-56.69495 -3.11067,-10.00629 -6.24688,-21.71113 -6.96934,-26.01076 -1.5803,-9.40489 -0.54108,-15.28236 4.93747,-27.92454 2.92124,-6.74099 3.62146,-9.70938 3.62146,-15.35217 0,-3.84745 0.65854,-8.57146 1.46342,-10.4978 1.71243,-4.09843 4.24025,-4.86854 15.98053,-4.86854 10.21732,0 22.45211,-2.43453 29.24786,-5.81987 7.29861,-3.63585 16.69962,-13.02075 20.44265,-20.40762 2.6086,-5.14806 3.06029,-7.37953 3.36895,-16.64316 0.24026,-7.21086 -0.22879,-13.57186 -1.43895,-19.51457 -2.57364,-12.63826 -10.4298,-36.15066 -14.72819,-44.07942 -2.02222,-3.73017 -3.51323,-6.94565 -3.31336,-7.14552 0.63998,-0.63998 12.62115,8.70925 17.86026,13.93685 6.23926,6.22556 7.62199,8.83077 9.14515,17.23051 0.65842,3.63093 3.37201,12.15498 6.03021,18.94234 8.92335,22.78461 14.6866,45.44722 18.96521,74.5763 1.50544,10.2491 1.86451,19.98545 1.8867,51.15981 0.0249,34.94839 -0.19188,39.86463 -2.34882,53.26949 -5.21869,32.43292 -9.12824,44.74099 -16.66929,52.47837 -6.6691,6.84271 -9.25125,5.36789 -20.36143,-11.62971 -4.42844,-6.77512 -6.21142,-8.67599 -8.13791,-8.67599 -3.48253,0 -4.48122,2.5395 -6.23859,15.86365 -0.84871,6.43484 -2.34451,13.38856 -3.32401,15.45269 -2.40643,5.07119 -8.88008,7.79431 -14.07546,5.92083 z"
       id="hamstring-right"
       inkscape:label="right_biceps_foot" />
  </g>
  <g
     id="adductors"
     inkscape:label="adductors"
     style="display:inline;fill:#222222;fill-opacity:1">
    <path
       style="display:inline;fill:#222222;stroke-width:2.84807;fill-opacity:1"
       d="m 410.00982,688.11926 c -0.5526,-1.93993 -2.49493,-7.24096 -4.3163,-11.78007 -2.29488,-5.71917 -3.48302,-10.73884 -3.86999,-16.35004 -0.30713,-4.45342 -0.74817,-9.3387 -0.98009,-10.85619 -0.39605,-2.5915 -0.003,-2.87229 6.466,-4.62347 3.78822,-1.02542 8.27304,-3.03011 9.96628,-4.45488 l 3.07861,-2.59048 -0.006,5.63169 c -0.009,7.83382 -2.56994,24.02509 -5.84321,36.93807 -1.51688,5.98407 -2.92276,11.04492 -3.12416,11.24633 -0.20141,0.20141 -0.81832,-1.22102 -1.37092,-3.16096 z"
       id="adduktor-left"
       inkscape:label="left_adduktor" />
    <path
       style="display:inline;fill:#222222;stroke-width:2.84807;fill-opacity:1"
       d="m 438.32812,681.93693 c -3.36329,-12.37527 -6.29776,-29.81767 -6.33738,-37.66927 l -0.0332,-6.56953 4.83541,3.06653 c 2.65948,1.68659 7.19439,3.67111 10.07757,4.41005 5.21907,1.33761 5.23974,1.36001 4.69086,5.08527 -0.30322,2.05795 -0.85263,7.06448 -1.22092,11.12562 -0.44144,4.86794 -1.84931,10.07956 -4.13186,15.29521 -1.90423,4.35122 -3.90919,9.3272 -4.45545,11.05775 -0.93462,2.96086 -1.13664,2.61867 -3.42507,-5.80163 z"
       id="adduktor-right"
       inkscape:label="right_adduktor" />
  </g>
  <g
     id="yagoditci"
     inkscape:label="yagoditci"
     style="display:inline;fill:#222222;fill-opacity:1">
    <path
       style="fill:#222222;stroke-width:2.84807;fill-opacity:1"
       d="m 375.52356,641.73423 c -20.81631,-1.31076 -34.50517,-9.73475 -41.90978,-25.79084 -3.43301,-7.44412 -3.24461,-21.32473 0.49279,-36.308 5.34312,-21.42054 12.1475,-38.90372 18.36252,-47.18064 3.8769,-5.1631 10.3946,-8.38687 20.94479,-10.35965 12.73975,-2.38221 22.0514,-1.59391 30.541,2.5855 7.48634,3.68552 10.64291,6.75206 15.85026,15.39823 l 3.81181,6.32905 -0.31276,39.02914 c -0.26595,33.18782 -0.56693,39.58169 -2.01105,42.72108 -2.18409,4.74801 -6.72142,9.21895 -11.44628,11.2788 -4.76914,2.07914 -20.775,3.15046 -34.3233,2.29733 z"
       id="glutes-left"
       inkscape:label="left_popa" />
    <path
       style="display:inline;fill:#222222;stroke-width:2.84807;fill-opacity:1"
       d="m 443.82209,639.88818 c -6.93123,-2.39447 -9.0734,-4.3254 -12.44596,-11.21866 l -2.6825,-5.48284 0.31342,-38.3894 0.31343,-38.3894 2.81201,-5.2742 c 3.7984,-7.12429 10.6425,-13.52027 18.28482,-17.08764 5.63803,-2.63179 7.48075,-2.9495 16.87746,-2.90987 14.92305,0.0629 23.93732,2.92571 30.03199,9.53764 11.02829,11.96429 23.23751,49.47905 23.23751,71.40093 0,8.09784 -0.34316,9.60838 -3.71304,16.34437 -5.68103,11.35571 -14.7033,18.24228 -28.66353,21.87845 -9.13608,2.37965 -37.03752,2.12219 -44.36561,-0.40938 z"
       id="glutes-right"
       inkscape:label="right_popa" />
  </g>
  <path
     style="fill:#222222;stroke-width:2.84807;fill-opacity:1"
     d="m 422.99143,537.27924 c -4.14675,-6.94336 -11.88228,-14.09854 -18.61374,-17.21728 -4.10627,-1.90246 -8.15064,-2.68081 -16.86421,-3.24557 -6.30437,-0.4086 -11.46249,-0.93809 -11.46249,-1.17664 0,-0.23855 0.9899,-2.37411 2.19979,-4.74568 3.10437,-6.08507 3.52981,-13.30001 1.5928,-27.01175 -1.25267,-8.86742 -1.40913,-13.10229 -0.61501,-16.64584 0.58581,-2.61397 6.54203,-15.6986 13.23606,-29.07696 12.84342,-25.66823 17.80529,-38.51513 18.89557,-48.92302 0.36465,-3.48097 0.91972,-8.12014 1.23349,-10.30925 l 0.57048,-3.9802 2.95412,4.07804 c 3.09079,4.26672 8.02157,8.62915 9.75337,8.62915 1.92419,0 7.33761,-4.50937 10.26538,-8.55104 l 2.93703,-4.05444 0.74009,7.62129 c 1.66096,17.1041 4.1816,24.05222 20.94192,57.72627 l 11.8129,23.73393 -0.15694,9.49357 c -0.0863,5.22147 -0.32366,14.71504 -0.52742,21.09683 -0.32256,10.10237 -0.0798,12.23175 1.87652,16.46211 l 2.247,4.85885 -10.50567,0.64004 c -16.13186,0.98279 -26.14696,6.36626 -34.15186,18.35786 -2.23747,3.35179 -4.32159,6.41913 -4.63139,6.8163 -0.30979,0.39718 -1.9873,-1.66228 -3.72779,-4.57657 z"
     id="down_medium_back"
     inkscape:label="medium_back" />
  <g
     id="lats"
     inkscape:label="shirochayshie"
     style="display:inline;fill:#222222;fill-opacity:1">
    <path
       style="fill:#222222;stroke-width:2.84807;fill-opacity:1"
       d="m 324.36375,543.34794 c 0,-0.84703 1.39245,-10.4733 3.09434,-21.39172 4.30764,-27.63564 5.3444,-38.18553 5.3444,-54.38383 0,-29.29268 -2.56053,-39.64517 -17.52013,-70.83581 -13.28262,-27.69414 -15.72135,-34.67307 -17.18075,-49.16631 -0.6134,-6.09171 -1.59116,-12.70027 -2.1728,-14.68569 -1.80049,-6.14596 -2.6045,-24.69795 -1.18529,-27.34977 0.69048,-1.29016 3.72139,-3.45252 6.73538,-4.80524 8.88012,-3.98555 35.48991,-23.33152 51.19654,-37.22115 l 5.63259,-4.981 1.94325,2.57623 c 4.37607,5.80148 19.32491,32.99687 24.80744,45.13046 6.30398,13.95156 16.98357,40.31829 20.16084,49.77489 1.55674,4.63339 1.94468,8.98773 1.92658,21.62425 -0.0222,15.52206 -0.0981,16.04195 -3.99578,27.3696 -2.20898,6.41986 -9.40049,22.11035 -16.19631,35.33719 l -12.22318,23.79021 0.84322,13.18552 c 1.29175,20.19935 1.076,28.55736 -0.8305,32.17266 -2.72938,5.17575 -7.19844,8.65902 -15.37469,11.98335 -10.34233,4.20502 -17.85232,8.83961 -27.2105,16.79226 -4.51216,3.83446 -7.79465,5.9754 -7.79465,5.0839 z"
       id="lat-left"
       inkscape:label="left_back" />
    <path
       style="fill:#222222;stroke-width:2.84807;fill-opacity:1"
       d="m 521.61911,540.3972 c -7.09502,-6.30523 -21.35045,-15.43813 -28.7747,-18.43482 -10.43034,-4.21008 -13.05884,-6.25341 -16.13664,-12.54421 -2.61782,-5.35062 -2.77239,-6.42163 -2.16155,-14.9769 0.36184,-5.06781 0.95348,-13.72473 1.31475,-19.2376 l 0.65685,-10.02341 -13.75313,-27.95088 c -7.56422,-15.37299 -14.76633,-30.98923 -16.00468,-34.70277 -2.76763,-8.29948 -4.06529,-31.14507 -2.29992,-40.49062 1.39421,-7.38068 15.79522,-43.71877 24.54466,-61.93359 6.80435,-14.16546 20.33478,-38.24436 22.5001,-40.04142 0.97806,-0.81171 4.17503,1.23833 12.28986,7.88083 15.72364,12.87077 36.02559,27.23633 45.51399,32.20545 l 8.17502,4.2813 -0.0183,8.64905 c -0.0101,4.75697 -0.74483,11.97179 -1.63278,16.03293 -0.88796,4.06114 -2.04599,13.16494 -2.57343,20.23067 -0.80013,10.71881 -1.59609,14.56278 -4.80531,23.20651 -4.93608,13.29486 -10.33399,24.81874 -17.20509,36.73077 -6.38397,11.06751 -9.17776,19.34429 -11.21579,33.22751 -3.40762,23.21289 -2.53628,44.6014 3.19146,78.33967 2.06655,12.17268 3.61878,22.50064 3.4494,22.95103 -0.16939,0.45038 -2.44403,-1.07939 -5.05476,-3.3995 z"
       id="lat-right"
       inkscape:label="right_back" />
  </g>
  <path
     style="fill:#222222;stroke-width:2.84807;fill-opacity:1"
     d="m 422.1852,380.52984 c -3.52536,-3.67968 -8.27559,-13.97002 -16.91909,-36.65152 -12.11454,-31.78992 -18.6186,-46.03896 -30.9324,-67.76652 -3.6968,-6.52295 -6.72146,-12.10042 -6.72146,-12.39438 0,-0.29396 2.96675,-0.53591 6.59276,-0.53766 3.62602,-0.002 11.47505,-0.95112 17.44229,-2.10969 14.21715,-2.76033 47.15365,-2.95606 62.98938,-0.37431 5.80162,0.94585 14.93348,2.01108 20.293,2.36717 l 9.74459,0.64744 -4.8743,8.43873 c -8.72973,15.11354 -20.03557,39.5655 -30.48291,65.92759 -13.93489,35.16235 -19.13812,45.35819 -23.14763,45.35819 -0.66057,0 -2.45347,-1.30727 -3.98423,-2.90504 z"
     id="up-medium-back"
     inkscape:label="up_medium_back" />
  <path
     style="fill:#222222;stroke-width:2.84807;fill-opacity:1"
     d="m 365.90369,257.2921 c -1.80996,-0.8929 -5.84473,-3.87306 -8.96616,-6.62258 -7.80849,-6.87813 -11.09588,-9.00741 -17.62134,-11.41354 l -5.61697,-2.07115 9.36303,-4.28916 c 11.89776,-5.45031 27.57288,-10.482 37.43836,-12.01766 5.21247,-0.81138 21.58053,-1.03862 50.92955,-0.70705 l 43.2485,0.48858 14.76778,5.03067 c 8.12228,2.76686 17.8532,6.43561 21.62425,8.15277 l 6.85647,3.1221 -3.81612,1.33341 c -5.11371,1.7868 -10.6141,5.26862 -17.8946,11.32751 -10.06257,8.37416 -12.17725,9.33389 -20.48294,9.29606 -4.06113,-0.0185 -10.23196,-0.74845 -13.71293,-1.62211 -4.31379,-1.08269 -14.55804,-1.78725 -32.17267,-2.21272 -23.58308,-0.56963 -26.86705,-0.42739 -37.54407,1.62606 -13.75798,2.646 -21.85018,2.82342 -26.40014,0.57881 z"
     id="traps"
     inkscape:label="trapeciya" />
  <g
     id="shoulder"
     inkscape:label="shoulder"
     style="display:inline;fill:#222222;fill-opacity:1">
    <path
       id="shoulder-left"
       style="fill:#222222;stroke-width:2.84807;fill-opacity:1"
       inkscape:label="left_shoulder"
       d="m 248.01275,304.58548 c 1.70694,-7.14896 6.83067,-19.54621 9.99768,-24.19014 5.14276,-7.54106 20.72061,-22.58191 27.89645,-26.9348 25.41223,-15.41515 50.11651,-16.27826 65.72264,-2.29621 l 4.58666,4.10936 -8.64108,7.38286 c -10.1718,8.6907 -39.94347,30.45763 -45.62826,33.36015 -6.02528,3.07638 -14.65795,4.96628 -30.32516,6.63894 -7.8322,0.83618 -16.31742,2.26515 -18.85606,3.17549 -5.84024,2.09428 -5.56741,2.16578 -4.75287,-1.24565 z" />
    <path
       id="shoulder-right"
       style="fill:#222222;stroke-width:2.84807;fill-opacity:1"
       inkscape:label="right_shoulder"
       d="m 600.2048,306.2271 c -2.96341,-1.17573 -11.24037,-2.75599 -18.89149,-3.60681 -18.56529,-2.06448 -26.76511,-4.09734 -33.92983,-8.41171 -7.35505,-4.42898 -45.50064,-32.97648 -48.39912,-36.22105 -2.51772,-2.81836 -1.72845,-4.43391 4.50447,-9.22011 13.01259,-9.99226 29.62862,-10.32881 51.63918,-1.04592 20.39007,8.59944 36.5257,23.44018 44.42357,40.85855 3.09678,6.82982 6.96601,18.76666 6.28872,19.40114 -0.19871,0.18615 -2.73469,-0.60318 -5.6355,-1.75409 z" />
  </g>
  <g
     id="forearms_back"
     style="display:inline"
     inkscape:label="arms">
    <path
       style="fill:#222222;stroke-width:2.84807;fill-opacity:1"
       d="m 712.82416,549.42392 c -1.87726,-0.9255 -6.9074,-6.01748 -11.17808,-11.31553 -9.23076,-11.45133 -17.74177,-21.00137 -30.20655,-33.89417 -14.28667,-14.77725 -21.32515,-23.76332 -31.69283,-40.46243 -5.2737,-8.49429 -13.11878,-20.39392 -17.43351,-26.44363 -4.31473,-6.04971 -7.70004,-11.14439 -7.52292,-11.32151 0.17712,-0.17712 1.95197,0.15089 3.94412,0.7289 4.43954,1.28812 8.62624,0.48772 10.96465,-2.0962 0.98798,-1.09171 2.36509,-5.72536 3.14013,-10.56582 0.75924,-4.74176 1.90442,-9.14536 2.54484,-9.78578 0.8493,-0.8493 2.61996,-0.82841 6.54329,0.0772 8.71292,2.01118 12.1355,1.63978 14.67828,-1.59283 l 2.22956,-2.83443 9.01058,8.89976 c 22.69178,22.41272 36.29628,46.70833 55.78074,99.61614 2.77756,7.54212 6.88157,17.70013 9.12003,22.57337 l 4.06995,8.86041 -1.90784,3.26668 c -4.31772,7.39294 -14.16065,10.1963 -22.08444,6.28987 z"
       id="forearms-back-right"
       inkscape:label="right_arm" />
    <path
       style="fill:#222222;stroke-width:2.84807;fill-opacity:1"
       d="m 127.54978,550.13269 c -3.14006,-1.2703 -7.82397,-7.17319 -7.83263,-9.87108 -0.007,-2.2341 9.76536,-27.87813 22.37973,-58.72648 12.42566,-30.38686 27.73243,-55.25763 44.94035,-73.02009 l 7.89299,-8.14733 3.57267,3.13684 c 4.0882,3.58949 4.00444,3.57924 12.4654,1.52523 6.02125,-1.46173 6.41354,-1.43511 8.06621,0.54747 1.03297,1.23918 2.04548,5.15407 2.49775,9.65766 0.98951,9.85304 3.68543,13.03641 10.34936,12.22057 2.42158,-0.29647 5.27038,-0.89372 6.33066,-1.32724 1.13862,-0.46554 -2.3158,5.64483 -8.43874,14.92686 -5.70157,8.64329 -14.63861,22.53 -19.86008,30.85936 -8.2675,13.18845 -11.7485,17.49422 -26.95367,33.3399 -9.60305,10.00759 -22.13937,23.99512 -27.85847,31.08344 -5.71911,7.0883 -11.53998,13.32185 -12.93526,13.85234 -3.11097,1.1828 -11.63328,1.14929 -14.61627,-0.0575 z"
       id="forearms-back-left"
       inkscape:label="left_arm" />
  </g>
  <g
     id="triceps"
     inkscape:label="triceps"
     style="display:inline;fill:#222222;fill-opacity:1">
    <path
       style="fill:#222222;stroke-width:2.84807;fill-opacity:1"
       d="m 615.79344,420.83041 c -9.73901,-4.85315 -26.81923,-23.2372 -44.37305,-47.76029 -11.76145,-16.43102 -13.25482,-19.74416 -12.58732,-27.9258 0.29347,-3.59711 1.26396,-10.57498 2.15663,-15.50636 0.89268,-4.93138 1.94621,-12.45718 2.34119,-16.72399 l 0.71813,-7.75783 7.00206,0.75079 c 3.85112,0.41293 10.89125,1.10569 15.64472,1.53946 11.77061,1.07411 18.43431,4.48435 28.6833,14.67906 10.02766,9.97456 14.51766,16.82002 19.45698,29.66418 2.11951,5.51155 6.2391,13.58109 9.15465,17.93231 5.08909,7.59505 10.5384,21.42307 10.5384,26.74194 0,4.25952 -1.77683,4.90392 -11.59931,4.2067 -8.90147,-0.63184 -9.16798,-0.58252 -11.26628,2.08505 -1.41509,1.79898 -2.39619,5.14344 -2.87242,9.79168 -1.21909,11.89905 -3.20357,13.16371 -12.99768,8.2831 z"
       id="triceps-right"
       inkscape:label="right_triceps" />
    <path
       style="fill:#222222;stroke-width:2.84807;fill-opacity:1"
       d="m 226.87471,422.59959 c -0.31248,-0.5056 -1.01155,-4.88258 -1.5535,-9.72661 -1.28427,-11.47905 -2.97228,-13.14331 -12.24323,-12.071 -12.4753,1.44293 -11.5637,1.77387 -11.91798,-4.32653 -0.39808,-6.85463 2.40657,-15.02484 8.58725,-25.0155 6.00733,-9.71045 8.3536,-14.57026 10.63154,-22.02104 2.39024,-7.81811 8.12375,-16.60732 16.9078,-25.91887 10.16646,-10.77699 15.4445,-13.8448 26.68673,-15.51144 5.07684,-0.75264 12.83426,-1.70146 17.23872,-2.1085 l 8.00809,-0.74007 0.66995,10.94942 c 0.36847,6.02218 1.60081,15.47351 2.73854,21.00295 2.91861,14.18469 1.80987,17.80142 -11.29022,36.8289 -16.17236,23.48987 -31.42665,40.5408 -41.36196,46.23354 -5.56385,3.18797 -11.90476,4.36149 -13.10173,2.42475 z"
       id="triceps-left"
       inkscape:label="left_triceps" />
  </g>
  <path
     style="fill:#222222;stroke-width:2.84807;fill-opacity:1"
     d="m 383.86772,211.02053 c 1.97089,-2.58201 3.90645,-6.60644 4.30124,-8.94319 l 0.7178,-4.24864 3.86682,1.71926 c 9.61351,4.27435 18.34128,5.78468 33.9298,5.87152 16.21827,0.0904 24.39934,-1.2923 32.69855,-5.52624 l 4.2209,-2.15334 v 2.58987 c 0,3.87289 1.58881,7.33477 5.31282,11.57618 l 3.34446,3.80913 H 426.2722 380.28429 Z"
     id="neck-back"
     inkscape:label="sheya" />
  <path
     style="opacity:1;fill:#222222;fill-opacity:1;fill-rule:nonzero;stroke-width:2.84807"
     d="m 406.11397,199.45396 c -8.30584,-2.06915 -16.16848,-5.89765 -18.98402,-9.24373 -5.57279,-6.62288 -9.87105,-28.58078 -12.16825,-62.16215 -1.42483,-20.82873 -0.9219,-52.685431 0.90174,-57.118786 0.65827,-1.600285 3.46183,-4.305107 6.23012,-6.010714 2.76829,-1.705607 7.86282,-5.095395 11.32117,-7.532862 11.72355,-8.262835 13.79168,-8.83087 32.2138,-8.847898 l 16.35005,-0.01511 7.38389,3.989908 c 12.7298,6.878589 23.73121,15.28416 25.6227,19.576904 3.84628,8.729137 2.63285,69.882148 -1.88707,95.102848 -3.81221,21.2717 -9.50394,28.50393 -25.25123,32.08558 -8.89113,2.02224 -33.89856,2.12771 -41.7329,0.17601 z"
     id="path38" />
  <path
     style="opacity:1;fill:#222222;fill-opacity:1;fill-rule:nonzero;stroke-width:0.251736"
     d="m 372.93305,163.28512 c -0.61649,-0.58275 -1.89288,-2.44725 -2.33217,-3.40673 -0.65872,-1.43876 -1.12817,-3.33667 -1.39231,-5.62893 -0.19653,-1.70554 -0.14705,-5.28153 0.0905,-6.54167 0.31474,-1.66955 0.84961,-2.95105 1.54698,-3.70643 0.77621,-0.84079 0.98247,-0.34749 1.44289,3.45089 0.52824,4.35792 1.00356,7.9105 1.40962,10.53564 0.64649,4.17947 0.65023,5.69019 0.0143,5.76341 -0.20139,0.0232 -0.36659,-0.0756 -0.7798,-0.46618 z"
     id="path39" />
  <path
     style="opacity:1;fill:#222222;fill-opacity:1;fill-rule:nonzero;stroke-width:0.125868"
     d="m 478.25545,164.75852 c -0.3217,-0.49098 -0.20716,-2.07756 0.65039,-9.00829 0.34092,-2.75535 0.91761,-7.07132 1.12121,-8.39121 0.40255,-2.60954 0.66803,-3.51965 1.02668,-3.51965 0.31301,0 1.10354,1.36427 1.51289,2.6109 0.40154,1.22282 0.60076,2.57823 0.63719,4.33516 0.0496,2.38993 -0.22702,4.50643 -0.89063,6.81577 -0.40165,1.39772 -0.8419,2.46076 -1.65581,3.99813 -0.91857,1.73505 -1.50126,2.66303 -1.91541,3.05042 -0.2542,0.23778 -0.3831,0.2666 -0.48651,0.10877 z"
     id="path40" />
  <path
     style="opacity:1;fill:#222222;fill-opacity:1;fill-rule:nonzero;stroke-width:2.01389"
     d="m 120.02476,636.51662 c -10.60155,-7.40067 -11.04918,-8.01681 -15.64538,-21.53542 -1.89345,-5.5691 -2.15209,-7.37989 -2.13052,-14.91627 0.0243,-8.48663 0.0657,-8.68728 3.8969,-18.9029 3.57965,-9.54476 5.2599,-16.2206 7.56909,-30.073 0.84855,-5.09029 2.93504,-9.85794 2.99252,-6.83793 0.0292,1.53155 6.04907,7.65747 9.2431,9.40585 1.80881,0.99013 4.08202,1.26858 9.98717,1.22336 7.63431,-0.0585 7.64533,-0.0559 7.64533,1.77083 0,1.00616 1.24843,4.55682 2.77429,7.89035 2.7102,5.92093 2.78551,6.32807 3.25975,17.62219 0.3668,8.73557 0.87134,12.74618 2.06434,16.40948 2.01837,6.19778 1.99339,7.1314 -0.25084,9.37564 -1.42448,1.42448 -2.3235,1.74219 -3.9159,1.38388 -2.70784,-0.6093 -5.18607,-3.38486 -6.1198,-6.85403 -3.16846,-11.77205 -2.9951,-11.36434 -4.83222,-11.36434 -2.9869,0 -13.757,5.83099 -14.90161,8.06781 -2.01566,3.93907 -5.67578,15.65198 -5.67578,18.16331 0,2.72408 1.86727,5.94513 7.2762,12.55149 3.27259,3.99709 4.39083,6.63061 3.643,8.57945 -0.67732,1.76505 -2.14115,1.34807 -6.87964,-1.95975 z"
     id="path41" />
  <path
     style="opacity:1;fill:#222222;fill-opacity:1;fill-rule:nonzero;stroke-width:0.503473"
     d="m 130.06379,633.23085 c 0,-0.67785 -1.99519,-3.48542 -6.41381,-9.02532 -1.49193,-1.87053 -3.13406,-4.01063 -3.64918,-4.75578 l -0.93659,-1.35482 0.73928,-2.39526 c 1.90303,-6.16587 4.11192,-11.83905 5.56994,-14.30551 1.40986,-2.385 3.4259,-3.87571 4.06305,-3.00435 0.91661,1.25353 0.35722,7.39145 -1.14463,12.55944 -1.93744,6.66687 -1.74072,7.80221 2.127,12.27569 1.61043,1.86266 2.88447,3.64584 3.2776,4.58744 0.20794,0.49804 0.20749,0.71664 -0.003,1.3277 -0.49319,1.43359 -2.81818,4.39647 -3.44994,4.39647 -0.099,0 -0.17999,-0.13757 -0.17999,-0.3057 z"
     id="path42" />
  <path
     style="opacity:1;fill:#222222;fill-opacity:1;fill-rule:nonzero;stroke-width:0.712018"
     d="m 729.20792,640.4745 c -1.31089,-1.44852 -1.59567,-4.32404 -0.67686,-6.83452 0.47552,-1.29927 0.99882,-1.95759 3.51912,-4.42704 3.577,-3.50484 4.3137,-4.42598 6.56754,-8.2117 l 1.74884,-2.9375 -1.86827,-5.8968 c -2.86077,-9.02938 -4.24789,-12.37375 -5.68851,-13.71512 -2.85822,-2.66129 -13.47726,-7.68264 -15.28668,-7.2285 -0.92953,0.23329 -1.43752,1.51924 -1.70122,4.30654 -0.46656,4.93141 -2.41816,10.63928 -4.30548,12.59228 -0.84661,0.87607 -1.38333,1.18214 -2.47813,1.41318 -3.67667,0.7759 -5.97978,-0.13284 -6.65061,-2.62414 -0.40483,-1.50341 -0.0385,-4.00687 1.46836,-10.03401 1.87659,-7.50616 2.01321,-8.72977 2.0575,-18.42848 l 0.0391,-8.57058 0.68769,-1.45041 c 0.37823,-0.79772 1.29499,-2.4442 2.03724,-3.65883 1.64291,-2.68848 2.82703,-5.67906 3.24089,-8.18509 0.17034,-1.03144 0.45433,-2.07313 0.63109,-2.31486 0.29972,-0.40989 0.41818,-0.40907 1.75738,0.0122 0.7898,0.24842 2.55593,0.54581 3.92474,0.66086 7.87258,0.66169 14.35155,-2.11712 18.74492,-8.03963 2.04072,-2.75101 2.76173,-3.32794 3.27749,-2.6226 0.48444,0.66252 1.06945,4.12231 2.23261,13.20401 1.57386,12.28833 1.84564,13.34067 6.334,24.52506 1.57155,3.9161 3.17889,8.30688 3.57188,9.75729 0.66277,2.44612 0.71437,3.00952 0.71256,7.77945 -0.002,4.1197 -0.11565,5.77168 -0.57363,8.30688 -1.72471,9.54717 -5.07783,18.39538 -8.31984,21.95435 -1.99287,2.18771 -10.04364,8.4312 -13.62934,10.56976 -0.90829,0.54173 -0.96893,0.54605 -1.37442,0.098 z"
     id="path43" />
  <path
     style="opacity:1;fill:#222222;fill-opacity:1;fill-rule:nonzero;stroke-width:0.712018"
     d="m 723.47447,632.04783 c -0.43695,-0.68895 -0.92663,-1.69373 -1.08818,-2.23286 -0.42247,-1.40988 0.23627,-2.92795 2.4774,-5.70916 2.80024,-3.47506 2.97661,-3.8971 2.93514,-7.02355 -0.026,-1.96291 -0.31445,-3.98549 -1.12811,-7.91131 -0.60122,-2.90081 -1.16234,-6.22356 -1.24695,-7.38389 -0.13455,-1.84546 -0.0888,-2.18951 0.3653,-2.74708 l 0.51911,-0.6374 1.80497,0.84465 c 2.35857,1.10371 3.68099,2.48088 3.89724,4.05858 0.0893,0.65191 0.89772,3.42495 1.79637,6.16232 1.49029,4.53953 1.63601,5.18566 1.65769,7.35042 0.0306,3.05513 -0.1601,3.41179 -4.75206,8.88821 -1.96409,2.34239 -4.1065,5.00922 -4.76091,5.92629 -0.6544,0.91707 -1.30069,1.6674 -1.4362,1.6674 -0.1355,0 -0.60387,-0.56368 -1.04081,-1.25262 z"
     id="path44" />
  <path
     style="opacity:1;fill:#222222;fill-opacity:1;fill-rule:nonzero;stroke-width:2.01389"
     d="m 539.6482,1161.7651 c -3.58201,-1.0935 -8.07568,-3.7513 -9.58354,-5.6683 -2.90264,-3.6901 -3.29545,-6.513 -2.88984,-20.7669 0.33371,-11.7273 0.75002,-15.2966 3.14267,-26.944 2.52701,-12.3014 2.72775,-14.1755 2.3968,-22.3765 -0.87841,-21.7675 -13.8509,-66.0279 -29.14237,-99.4298 -2.31085,-5.0477 -4.20154,-9.31232 -4.20154,-9.47696 0,-0.16463 1.3848,0.18926 3.07732,0.78642 4.38938,1.54866 12.98608,1.37954 16.74905,-0.3295 3.29639,-1.49714 7.08609,-5.73793 10.39987,-11.63776 2.46226,-4.38381 4.7395,-7.08591 5.97176,-7.08591 0.48473,0 3.62349,3.16288 6.97503,7.02864 7.09529,8.18391 10.31018,10.12672 16.75727,10.12672 5.52749,0 8.96917,-1.49062 13.42615,-5.815 l 3.61616,-3.50856 -0.44545,3.72942 c -0.245,2.05119 -1.7033,16.31625 -3.24068,31.70009 -2.67133,26.731 -2.79484,29.1775 -2.78648,55.1956 0.007,22.711 0.22289,28.3378 1.30038,33.9378 2.4225,12.5903 1.11159,20.5808 -4.30367,26.2325 -3.56083,3.7163 -6.55831,4.2247 -10.55175,1.7896 -2.91034,-1.7746 -3.01865,-2.2924 -3.97347,-18.9986 -0.78118,-13.6681 -1.44511,-17.6341 -3.37449,-20.1574 -1.64861,-2.156 -2.17344,-0.885 -1.12143,2.7159 0.51546,1.7643 1.14561,9.8811 1.40634,18.1145 0.53389,16.8598 0.95723,18.3005 6.25183,21.2762 8.15183,4.5816 18.27271,-3.3747 19.69321,-15.4813 l 0.45779,-3.9016 4.42027,4.0924 c 5.85076,5.4167 21.32374,16.9332 27.01418,20.1066 2.49512,1.3914 7.49452,3.5974 11.10976,4.9021 10.4933,3.7872 13.07396,7.0136 9.06656,11.3354 -3.83415,4.1349 -9.35242,5.6529 -26.37504,7.2551 -10.00808,0.9419 -13.2334,1.8159 -25.94205,7.0297 -4.64965,1.9076 -10.58482,3.7444 -13.42594,4.1552 -5.91653,0.8554 -19.16096,0.8967 -21.87466,0.068 z"
     id="path45" />
  <path
     style="opacity:1;fill:#222222;fill-opacity:1;fill-rule:nonzero;stroke-width:2.01389"
     d="m 494.69867,872.66304 c 0.3073,-8.41945 0.1521,-12.38884 -0.58772,-15.03121 -0.58945,-2.1053 -3.99413,-8.06485 -8.23074,-14.40705 -3.97399,-5.94907 -7.47302,-11.65562 -7.77562,-12.68121 l -0.55018,-1.86471 1.77089,1.59099 c 3.28434,2.9507 6.85207,4.24707 12.58623,4.57331 4.95646,0.282 5.8897,0.11682 8.18699,-1.44899 5.35347,-3.64889 7.64512,-9.20812 8.94489,-21.69902 1.17014,-11.24525 1.55116,-13.22466 2.54559,-13.22466 0.49457,0 2.39504,2.37824 4.22328,5.28498 7.93258,12.61209 10.42023,15.68823 13.94946,17.24938 2.95306,1.30628 3.78563,1.38671 6.36258,0.61463 3.71095,-1.11182 9.30374,-6.6005 12.50422,-12.27143 1.31377,-2.32787 2.48508,-4.1333 2.60291,-4.01207 0.11783,0.12123 1.11035,7.60469 2.2056,16.62991 2.82356,23.26726 5.50981,35.3243 10.43085,46.81822 0.49947,1.16661 0.33364,1.23132 -1.43361,0.55942 -2.54119,-0.96616 -6.72822,-0.96458 -10.21484,0.004 -1.59262,0.44236 -4.99012,2.79144 -8.19955,5.66928 -6.03201,5.40879 -11.36032,8.48477 -14.69756,8.48477 -1.1939,0 -5.48458,-1.03016 -9.53484,-2.28924 -9.87628,-3.07018 -16.17153,-2.91138 -21.73702,0.54832 l -3.76937,2.34317 z"
     id="path46" />
  <path
     style="opacity:1;fill:#222222;fill-opacity:1;fill-rule:nonzero;stroke-width:2.01389"
     d="m 355.46437,883.19298 c -3.90548,-4.72173 -12.49989,-5.42948 -23.42705,-1.92919 -3.84203,1.23071 -7.62209,2.23437 -8.40013,2.23037 -2.63379,-0.0136 -8.85054,-3.53651 -13.72174,-7.77591 -2.66654,-2.32069 -6.16948,-4.91405 -7.78431,-5.76304 -3.26116,-1.71452 -8.94128,-2.05316 -11.49694,-0.68541 -2.05816,1.1015 -2.03656,0.86961 0.659,-7.07265 2.82185,-8.31435 5.2976,-20.53347 7.77358,-38.36655 1.05372,-7.58939 2.10629,-14.95054 2.33904,-16.35813 l 0.42318,-2.55925 2.16286,3.95511 c 3.27286,5.98488 7.03067,10.16766 10.75391,11.97005 6.58039,3.18551 9.8323,0.92866 19.08451,-13.24478 7.70272,-11.7998 8.01661,-11.77141 8.95562,0.81005 1.12402,15.06023 3.11941,20.64128 8.70193,24.33899 5.92544,3.92485 14.4811,2.89181 20.89554,-2.52299 1.33327,-1.12549 2.42412,-1.8403 2.42412,-1.58848 0,1.47319 -5.74499,11.45724 -9.29852,16.15962 -2.29375,3.03531 -5.0838,7.36481 -6.20012,9.62112 -1.91388,3.86833 -2.05094,4.84318 -2.40261,17.08789 -0.32766,11.40877 -0.50274,12.82861 -1.44187,11.69318 z"
     id="path47" />
  <path
     style="opacity:1;fill:#222222;fill-opacity:1;fill-rule:nonzero;stroke-width:2.01389"
     d="m 288.00901,1160.8961 c -2.8182,-0.8034 -8.31045,-2.8168 -12.20499,-4.4744 -9.42229,-4.0104 -15.83117,-5.5656 -28.78383,-6.985 -16.3906,-1.7962 -21.58738,-3.8662 -22.56773,-8.9894 -0.7201,-3.7632 1.60786,-5.796 9.91765,-8.6604 10.15057,-3.4989 26.71807,-14.3349 38.27259,-25.0324 l 4.26531,-3.9489 0.35364,3.6803 c 0.51714,5.382 4.02531,11.8875 7.82892,14.5179 5.48011,3.7898 11.2616,2.7812 15.33541,-2.6752 1.45826,-1.9532 1.3846,-1.197 3.10174,-31.8389 0.33107,-5.9079 0.23175,-6.8462 -0.64744,-6.1166 -1.78244,1.4793 -2.73434,7.5388 -3.35763,21.3737 -0.35081,7.7864 -0.98717,14.1728 -1.52665,15.321 -1.70981,3.6391 -6.22081,4.611 -10.18425,2.1942 -7.42878,-4.5298 -9.28808,-13.5506 -6.42642,-31.1789 2.1284,-13.1113 1.76516,-51.5373 -0.80579,-85.24 -1.11094,-14.56338 -2.23163,-28.66062 -2.49043,-31.32716 l -0.47053,-4.84825 3.72407,3.46316 c 4.92281,4.57793 7.58299,5.8604 12.15599,5.8604 6.16933,0 11.23998,-3.22632 18.10479,-11.51962 2.05639,-2.4843 4.21366,-4.79516 4.79394,-5.13525 1.49591,-0.87671 2.86125,0.49247 5.58265,5.59834 3.13946,5.89024 7.71808,10.96558 11.40195,12.63895 3.77015,1.71256 12.04358,1.85497 15.83095,0.27251 1.48564,-0.62074 2.86169,-0.9681 3.05788,-0.77191 0.1962,0.1962 -2.05828,5.76838 -5.00993,12.38263 -12.02348,26.9429 -21.32466,55.458 -26.26307,80.5159 -1.309,6.642 -1.68637,11.1026 -1.67224,19.766 0.0161,9.8842 0.30674,12.4924 2.49337,22.3766 2.1778,9.8443 2.51461,12.8458 2.80388,24.9871 0.3204,13.4477 0.2832,13.8844 -1.46106,17.1554 -1.13792,2.134 -2.85806,3.951 -4.72269,4.9887 -6.09537,3.3922 -21.40505,4.2221 -30.43005,1.6495 z"
     id="path48" />
</svg>
