<?xml version="1.0" encoding="UTF-8" standalone="no"?>
<svg
   width="570"
   height="894"
   viewBox="0 0 570 894"
   version="1.1"
   id="svg2"
   sodipodi:docname="front view.svg"
   inkscape:version="1.4.3 (0d15f75, 2025-12-25)"
   xmlns:inkscape="http://www.inkscape.org/namespaces/inkscape"
   xmlns:sodipodi="http://sodipodi.sourceforge.net/DTD/sodipodi-0.dtd"
   xmlns="http://www.w3.org/2000/svg"
   xmlns:svg="http://www.w3.org/2000/svg">
  <defs
     id="defs2" />
  <sodipodi:namedview
     id="namedview2"
     pagecolor="#ffffff"
     bordercolor="#000000"
     borderopacity="0.25"
     inkscape:showpageshadow="2"
     inkscape:pageopacity="0.0"
     inkscape:pagecheckerboard="0"
     inkscape:deskcolor="#d1d1d1"
     inkscape:zoom="1.3053691"
     inkscape:cx="298.38303"
     inkscape:cy="385.33162"
     inkscape:window-width="1278"
     inkscape:window-height="1360"
     inkscape:window-x="1273"
     inkscape:window-y="0"
     inkscape:window-maximized="0"
     inkscape:current-layer="svg2" />
  <g
     id="g57"
     inkscape:label="calf-front">
    <path
       style="fill:#222222;stroke-width:2.06838"
       d="m 374.14598,830.21989 c -1.09606,-0.73457 -4.76009,-3.92105 -8.14228,-7.08107 -5.39399,-5.03968 -6.21978,-6.16675 -6.72201,-9.1745 -0.6096,-3.65076 -3.15598,-6.67098 -8.09014,-9.59563 -4.22147,-2.50222 -4.6893,-4.13587 -4.27746,-14.93681 0.20082,-5.26671 0.06,-11.12712 -0.31283,-13.02314 -0.37287,-1.89602 -1.19925,-11.04059 -1.83638,-20.32127 -1.95939,-28.54107 -5.64068,-44.96815 -14.07272,-62.79698 l -4.34769,-9.1928 0.0725,-7.66067 c 0.0399,-4.21337 0.80017,-12.65926 1.68957,-18.76864 0.88941,-6.10938 1.85152,-14.2603 2.13802,-18.11314 l 0.52091,-7.00518 5.39284,1.83423 c 9.39377,3.19502 14.45425,2.11615 19.54597,-4.16713 5.80429,-7.16259 8.30137,-9.57057 9.29068,-8.95915 2.40492,1.48633 6.71524,14.5559 8.81989,26.74337 2.08272,12.06043 1.32389,37.94039 -1.93439,65.97291 -4.52041,38.89118 -4.25868,34.52935 -2.77782,46.29279 1.65401,13.1389 2.72599,16.84986 6.92349,23.96752 1.80998,3.06917 4.6119,8.10094 6.22648,11.18171 2.24959,4.29241 3.96314,6.39207 7.33258,8.98479 5.35418,4.11994 10.29119,9.61195 11.3367,12.61111 0.64192,1.84141 0.48402,2.66017 -0.91615,4.7503 -2.65761,3.96723 -8.48674,7.50484 -12.36616,7.50484 -1.79543,0 -4.73001,0.5171 -6.52131,1.1491 -4.09978,1.44649 -4.53911,1.4341 -6.97227,-0.19656 z"
       id="calf-front-left" />
    <path
       style="fill:#222222;stroke-width:2.06838"
       d="m 188.45244,830.395 c -1.68534,-0.55544 -4.33456,-1.03639 -5.88714,-1.06878 -3.82693,-0.0798 -6.05594,-1.02582 -9.46061,-4.01516 -3.60593,-3.16605 -5.02767,-6.32586 -4.0754,-9.05757 0.38604,-1.10737 3.70761,-4.94709 7.38128,-8.5327 6.94347,-6.77704 11.70381,-13.22785 16.9806,-23.01069 4.47501,-8.29637 5.92901,-13.16424 6.9819,-23.37474 1.18547,-11.4963 0.61117,-22.25192 -2.3116,-43.29179 -1.41082,-10.15592 -2.62844,-23.41228 -3.16589,-34.46721 -1.33916,-27.54558 0.009,-38.39951 7.03403,-56.61508 1.28917,-3.34292 2.79361,-6.06411 3.35263,-6.06411 1.04905,0 3.19902,2.31467 8.43076,9.07658 5.08374,6.57062 10.12108,7.72353 19.61093,4.48841 l 5.03602,-1.71679 2.51736,20.11232 c 3.24978,25.96386 3.12801,28.6106 -1.80735,39.2837 -8.96539,19.38838 -12.45081,35.39549 -14.23688,65.38439 -0.44795,7.52118 -1.29234,15.95469 -1.87643,18.74115 -0.85988,4.10215 -0.89862,6.80266 -0.20356,14.19057 l 0.85842,9.12429 -2.70369,2.39419 c -1.48703,1.31681 -4.17359,3.60076 -5.97013,5.07543 -2.6129,2.14478 -3.47935,3.51021 -4.33061,6.82451 -0.93518,3.64102 -1.77614,4.80181 -6.93748,9.57584 -9.32444,8.62472 -9.65606,8.77603 -15.21716,6.94324 z"
       id="calf-front-right" />
  </g>
  <path
     style="fill:#222222;stroke-width:2.06838"
     d="m 217.6537,629.00912 c -1.73524,-1.85848 -5.18016,-5.65526 -7.65538,-8.43728 l -4.5004,-5.05823 0.40462,-6.30951 c 0.22255,-3.47022 0.81711,-9.2397 1.32127,-12.82107 1.50717,-10.70657 1.17619,-9.95321 4.01516,-9.13901 1.36596,0.39175 4.25346,0.71228 6.41667,0.71228 2.21204,0 4.28077,0.41902 4.72762,0.95758 0.43698,0.52667 1.69003,3.33694 2.78455,6.24503 3.70218,9.83651 6.5334,12.72259 12.46638,12.70794 3.71063,-0.009 10.15281,-3.6404 13.0239,-7.34111 1.17918,-1.51992 2.76908,-3.50473 3.53311,-4.41068 1.37563,-1.63117 1.38429,-1.61738 0.88994,1.41707 -1.38883,8.52499 -8.08705,21.46147 -14.53615,28.07413 -4.94723,5.0727 -8.61451,6.74364 -14.84759,6.76509 -4.79991,0.0165 -4.94602,-0.0445 -8.0437,-3.36223 z"
     id="path19" />
  <path
     style="fill:#222222;stroke-width:2.06838"
     d="m 340.51671,632.47826 c -2.31735,-0.7478 -5.29723,-1.92579 -6.62195,-2.61775 -6.4008,-3.3434 -15.80511,-18.10843 -18.67102,-29.314 -0.8368,-3.27188 -1.39532,-6.07501 -1.24115,-6.22918 0.15417,-0.15417 0.88903,0.64872 1.63303,1.78421 4.72332,7.20869 11.40387,11.95511 17.00601,12.08248 4.48143,0.10189 7.82839,-3.26773 10.95843,-11.03264 3.52234,-8.73813 3.95309,-9.19508 8.66767,-9.19508 2.1909,0 5.07665,-0.31352 6.41278,-0.69672 2.84648,-0.81636 3.30163,-0.15973 3.31419,4.78122 0.004,1.75622 0.69912,7.6703 1.54369,13.14239 l 1.53558,9.94926 -2.73911,2.30781 c -1.50652,1.2693 -4.52811,4.71004 -6.71465,7.6461 -2.27148,3.05011 -5.28898,6.08207 -7.0398,7.07352 -3.60396,2.04084 -2.80415,2.00918 -8.0437,0.31838 z"
     id="path20" />
  <g
     id="g56"
     inkscape:label="quads">
    <path
       style="fill:#222222;stroke-width:2.06838"
       d="m 326.26501,602.32005 c -4.62391,-3.11149 -8.11059,-7.65207 -10.27549,-13.38142 -4.40574,-11.65969 -9.50112,-38.90401 -9.06099,-48.44799 0.28732,-6.23058 0.86007,-7.49645 7.86784,-17.38943 3.8984,-5.50342 5.84287,-10.37339 8.94715,-22.40829 3.24109,-12.56528 5.78249,-27.02998 7.21728,-41.07805 2.63029,-25.75315 8.51224,-54.80449 13.0236,-64.32438 2.55171,-5.38462 7.09314,-12.2935 7.68915,-11.69749 0.17548,0.17548 1.68684,7.71305 3.35858,16.75016 1.67174,9.0371 4.07434,21.07733 5.33911,26.75605 3.70031,16.6141 6.12609,30.77887 6.98819,40.80591 0.44236,5.14499 1.14781,12.80182 1.56767,17.01519 3.02762,30.38254 0.20288,71.70971 -6.23662,91.24456 -2.19318,6.65323 -3.84965,7.94463 -11.07594,8.63488 -6.90335,0.65941 -7.08266,0.82178 -10.153,9.19402 -2.52451,6.88386 -5.86331,10.816 -9.18393,10.816 -1.33951,0 -3.86959,-1.04767 -6.0126,-2.48972 z"
       id="quad-left " />
    <path
       style="fill:#222222;stroke-width:2.06838"
       d="m 232.69308,602.79899 c -1.27522,-1.28821 -3.07111,-4.74677 -4.32602,-8.33112 -2.93787,-8.39135 -3.92524,-9.31222 -10.67936,-9.96014 -3.01795,-0.2895 -6.24708,-1.00856 -7.17584,-1.5979 -2.9343,-1.86195 -7.51949,-19.70268 -9.43324,-36.70417 -1.55224,-13.78994 -1.82274,-46.49207 -0.49426,-59.75322 0.67535,-6.74139 1.60882,-16.39383 2.07438,-21.44987 0.9439,-10.25077 2.488,-18.92503 6.88653,-38.68637 1.64119,-7.3734 4.0653,-19.61132 5.38692,-27.19538 1.32162,-7.58406 2.67297,-14.07691 3.00301,-14.42855 1.28651,-1.37075 8.23263,10.50192 11.04261,18.8746 2.31262,6.89074 7.17586,35.74356 10.41976,61.81873 3.8206,30.71084 9.88076,51.31611 18.14187,61.68453 4.62574,5.80573 4.83885,6.4698 4.83394,15.06331 -0.0104,18.27341 -6.94784,47.0054 -13.38836,55.44935 -2.77082,3.63273 -7.29146,6.50403 -11.02951,7.0054 -2.66602,0.35759 -3.37639,0.11607 -5.26243,-1.7892 z"
       id="quad-right" />
  </g>
  <g
     id="g55"
     inkscape:label="adductor">
    <path
       style="fill:#222222;stroke-width:2.06838"
       d="m 302.17554,532.39277 c -2.01705,-5.1341 -4.82132,-13.62833 -8.0112,-24.26615 -3.7337,-12.4514 -4.97411,-21.32931 -4.97411,-35.60097 v -8.78502 l 4.08334,-3.73194 c 5.57937,-5.09923 9.28072,-12.63848 15.07057,-30.69709 2.60538,-8.1262 5.98502,-17.33296 7.5103,-20.45945 4.59831,-9.42554 15.06266,-19.4805 25.97742,-24.96113 6.21038,-3.11841 6.75445,-2.6911 3.32648,2.61264 -3.43374,5.31267 -7.16115,13.89827 -8.85172,20.38881 -1.83833,7.05784 -6.96465,38.87296 -9.17803,56.961 -3.78652,30.94395 -9.49482,50.92757 -17.07809,59.78691 -1.44877,1.69257 -3.61226,4.86604 -4.80775,7.05216 l -2.17361,3.97476 z"
       id="adductor-left" />
    <path
       style="fill:#222222;stroke-width:2.06838"
       d="m 264.03573,531.03805 c -0.92127,-1.7699 -3.39242,-5.63111 -5.49146,-8.58047 -4.36257,-6.12986 -6.11886,-10.34404 -9.25861,-22.21593 -3.29062,-12.4424 -5.026,-22.11435 -7.59968,-42.35607 -2.39112,-18.8059 -6.10773,-42.07992 -8.09393,-50.68551 -1.37015,-5.93646 -7.14564,-18.43336 -10.39559,-22.49378 -1.28699,-1.60793 -2.1398,-3.1237 -1.89513,-3.36837 0.7916,-0.79161 10.26224,4.34784 16.40557,8.90284 10.91534,8.09322 16.47892,17.61203 24.58962,42.0707 5.66869,17.09451 8.91951,23.54809 14.17994,28.15024 l 3.904,3.41546 -0.0682,10.52158 c -0.0752,11.60372 -1.74198,23.81474 -4.59413,33.65692 -2.24697,7.75379 -8.69437,25.38888 -9.4538,25.85824 -0.30448,0.18818 -1.30736,-1.10595 -2.22862,-2.87585 z"
       id="adductor-right" />
  </g>
  <g
     id="g54"
     inkscape:label="abs">
    <path
       style="fill:#222222;stroke-width:2.06838"
       d="m 277.31222,416.93188 c -15.37377,-15.77452 -22.10232,-34.88532 -24.0723,-68.37147 -1.87967,-31.95096 -2.39044,-43.46905 -2.44111,-55.04862 -0.0413,-9.42879 -0.38528,-13.48893 -1.49685,-17.66629 -1.93025,-7.25397 -1.89508,-10.75366 0.12838,-12.77712 3.56014,-3.56015 18.10721,-8.35116 25.35683,-8.35116 3.29582,0 4.11866,0.35712 6.96357,3.02223 l 3.22612,3.02223 3.22116,-3.14774 c 2.93664,-2.86972 3.54562,-3.13579 6.8946,-3.01235 7.58364,0.27953 20.7869,4.97364 25.01743,8.89437 2.35727,2.18464 2.53877,4.46957 0.7935,9.9899 -0.89695,2.83711 -1.38483,9.39238 -1.88147,25.28021 -1.25737,40.22401 -2.89913,64.82151 -5.01084,75.07455 -3.23662,15.71486 -10.0289,29.92565 -19.69769,41.21146 -7.15694,8.35387 -10.34788,8.70668 -17.00133,1.8798 z m 9.21085,-19.49788 c 0.76296,-22.38232 -0.0625,-32.09711 -2.41733,-28.44805 -0.71479,1.10767 -1.39824,42.27912 -0.73072,44.01866 0.22256,0.57998 0.89441,1.05452 1.493,1.05452 0.88957,0 1.19185,-3.03636 1.65505,-16.62513 z m -0.20725,-37.4874 c 0.52253,-1.95366 1.64839,-4.00969 2.50192,-4.56894 0.85353,-0.55925 4.70625,-1.37416 8.56161,-1.81089 8.18834,-0.9276 9.43042,-1.31003 9.43042,-2.90367 0,-1.00644 -0.9224,-1.10954 -6.25035,-0.69869 -3.43768,0.2651 -8.30258,0.88575 -10.81088,1.37923 -3.4992,0.68843 -5.71016,0.68541 -9.50037,-0.013 -7.23615,-1.33331 -16.81086,-1.94951 -17.32656,-1.11508 -1.0446,1.69019 1.13003,2.58429 8.02428,3.29918 10.14754,1.05225 11.0768,1.48986 11.74576,5.53144 0.95406,5.764 2.23804,6.08299 3.62417,0.90039 z m 22.96845,-12.25846 c 5.33571,-0.88201 2.06415,-1.80879 -6.54156,-1.85311 -4.71518,-0.0243 -9.95186,-0.28866 -11.63709,-0.58751 l -3.06405,-0.54336 -0.76628,-4.74628 c -1.28963,-7.98775 -3.7205,-8.52204 -4.59244,-1.0094 -0.29128,2.50968 -0.92847,4.89052 -1.41599,5.29076 -0.48752,0.40023 -5.71262,0.84677 -11.61133,0.9923 -10.76948,0.2657 -15.40842,1.24515 -10.72494,2.26441 2.96886,0.64611 46.60033,0.81265 50.35368,0.19219 z m -22.00392,-23.50176 c 0.44936,-1.60159 1.32146,-3.23104 1.938,-3.621 0.61654,-0.38996 5.07307,-0.71429 9.90339,-0.72074 8.36365,-0.0112 8.71856,-0.0757 7.44323,-1.35235 -1.18714,-1.18841 -3.44405,-1.36823 -19.87793,-1.5838 -19.78015,-0.25946 -23.54308,0.0298 -23.54308,1.81003 0,0.90285 1.49451,1.11438 7.87325,1.11438 8.16947,0 11.27842,0.97612 11.27842,3.54111 0,2.03738 1.59572,4.21966 2.9016,3.96817 0.71683,-0.13805 1.62054,-1.50713 2.08312,-3.1558 z m -7.85747,-10.52917 5.17095,-1.70053 5.17095,1.70053 c 6.06444,1.99436 21.05618,3.14594 21.95805,1.68669 0.76406,-1.23628 -1.99622,-2.09995 -8.7434,-2.73572 -7.64145,-0.72003 -12.33799,-1.80385 -13.88555,-3.20437 -0.72821,-0.65902 -1.50046,-3.01036 -1.80985,-5.51059 -1.00266,-8.10268 -3.75555,-7.96417 -4.6334,0.23313 -0.51386,4.7983 -0.57439,4.90304 -3.51303,6.07885 -1.64459,0.65804 -6.34685,1.54912 -10.44948,1.98019 -9.79374,1.02904 -10.90663,1.31448 -10.90663,2.79744 0,1.10462 0.95353,1.19865 8.23522,0.81209 5.41344,-0.28739 10.00703,-1.01987 13.40617,-2.13771 z m 7.33458,-22.87812 c 1.30972,-3.75706 4.20155,-5.05957 10.82713,-4.87662 3.17783,0.0877 6.60481,0.26011 7.61551,0.38303 2.64735,0.32198 2.83794,-1.38216 0.31646,-2.82962 -2.11345,-1.21322 -2.11795,-1.23042 -0.23893,-0.91172 1.05335,0.17866 3.54156,0.78146 5.52937,1.33956 4.15669,1.16702 5.28021,0.62167 3.27775,-1.59103 -1.893,-2.09174 -7.74555,-3.72085 -15.23657,-4.24123 -11.50586,-0.79929 -10.94003,-0.52815 -11.56467,-5.54177 -1.08616,-8.71796 -3.59126,-9.01249 -4.75,-0.55847 l -0.62966,4.5939 -3.05989,0.52007 c -1.68295,0.28604 -6.22763,0.86501 -10.09931,1.28661 -7.53984,0.82104 -14.02743,3.13565 -14.02743,5.00464 0,1.91052 1.11481,2.01483 5.14936,0.48182 2.12043,-0.8057 5.70748,-1.65355 7.97123,-1.88411 l 4.11592,-0.41921 -4.07802,1.04937 c -7.5031,1.93071 -7.54197,4.48627 -0.051,3.35248 5.14166,-0.7782 10.30751,-0.27945 12.2465,1.18238 0.67259,0.50708 1.80182,2.04233 2.50939,3.41168 1.59663,3.0899 3.15398,3.18246 4.17685,0.24824 z"
       id="abs-upper" />
    <path
       style="fill:#222222;stroke-width:2.06838"
       d="m 280.94712,459.25674 c -5.82607,-3.54304 -11.64236,-14.77751 -17.07676,-32.98466 -6.33809,-21.23482 -15.04217,-33.84784 -29.30977,-42.47259 -2.788,-1.68535 -5.08136,-3.2947 -5.09634,-3.57634 -0.015,-0.28164 1.16935,-1.2516 2.63183,-2.15546 6.35135,-3.92535 12.38805,-13.53992 14.27034,-22.72818 0.7807,-3.81089 0.77266,-7.41511 -0.0421,-18.8487 -0.92667,-13.00484 -0.84197,-16.83488 0.5378,-24.31857 l 0.49435,-2.68124 0.57194,3.06427 c 0.31457,1.68535 0.59522,7.20103 0.62367,12.25707 0.11293,20.07165 2.87043,47.25481 5.86193,57.78646 3.88896,13.69117 15.85605,33.91339 23.47061,39.66112 6.43547,4.8577 9.81735,3.99701 17.88076,-4.55062 13.76739,-14.59416 21.34921,-33.79682 23.2777,-58.956 0.61298,-7.99705 2.03379,-37.81773 2.36535,-49.64533 0.10898,-3.88765 1.35158,1.10404 2.29506,9.21955 0.78083,6.71644 0.71903,9.31196 -0.43213,18.15067 -1.6058,12.32937 -1.2355,17.20247 1.92164,25.28899 2.94624,7.54637 6.75057,12.71863 11.54873,15.70132 2.07622,1.29065 3.77494,2.44251 3.77494,2.55969 0,0.11719 -2.15456,1.51091 -4.78792,3.09717 -5.91212,3.56131 -14.19297,11.38469 -18.67712,17.64532 -4.48117,6.25647 -6.91921,11.84915 -12.00166,27.53093 -7.58948,23.41718 -11.68152,30.05106 -19.72118,31.97137 -1.25856,0.30061 -2.80676,-0.0585 -4.38171,-1.01624 z"
       id="abs-lower" />
  </g>
  <g
     id="g53"
     inkscape:label="oblique">
    <path
       style="fill:#222222;stroke-width:2.06838"
       d="m 347.41131,377.28844 c -10.24805,-1.74009 -16.34888,-7.64844 -20.17163,-19.53523 -1.49327,-4.6433 -1.53184,-5.82829 -0.83524,-25.66324 0.50466,-14.36956 0.41288,-16.35549 -1.07973,-23.36503 -2.73469,-12.84257 -3.33289,-18.62096 -2.39525,-23.13752 0.80789,-3.89162 1.27184,-4.44904 12.45676,-14.96647 6.38969,-6.00836 15.98064,-15.179 21.31323,-20.3792 l 9.6956,-9.45491 0.56269,12.00617 c 0.30948,6.6034 0.35023,13.55625 0.0906,15.45078 -0.73239,5.34342 -4.41346,15.59896 -10.83768,30.19402 -7.40549,16.82437 -10.33143,25.46597 -10.33143,30.51324 0,2.152 1.00971,12.27069 2.24381,22.48598 1.94354,16.08777 3.08373,26.83347 2.81469,26.52685 -0.0435,-0.0496 -1.63035,-0.35351 -3.52637,-0.67544 z"
       id="oblique-left" />
    <path
       style="fill:#222222;stroke-width:2.06838"
       d="m 219.18668,376.1012 c -0.55687,-1.45119 0.51473,-12.32222 2.67704,-27.15776 1.20969,-8.29969 1.51795,-13.23838 1.2193,-19.5347 -0.44902,-9.46616 -0.97218,-11.07773 -10.36521,-31.92913 -7.35092,-16.31818 -8.48148,-19.6754 -9.32654,-27.69539 -0.85129,-8.07912 -0.98689,-20.14053 -0.28407,-25.26817 l 0.48253,-3.52041 15.36954,14.71298 c 8.45325,8.09213 18.28469,17.54438 21.84764,21.00498 l 6.4781,6.29201 -0.44752,7.11416 c -0.24614,3.91279 -1.36344,11.94038 -2.4829,17.8391 -1.86462,9.82515 -1.9868,11.62472 -1.45642,21.44987 1.17379,21.74419 0.96753,25.33905 -1.82908,31.87744 -3.09929,7.24605 -6.63603,11.45346 -11.7843,14.01895 -4.5195,2.25217 -9.39195,2.63627 -10.09811,0.79607 z"
       id="oblique-right" />
  </g>
  <g
     id="g52"
     inkscape:label="chest">
    <path
       style="fill:#222222;stroke-width:2.06838"
       d="m 314.94367,255.43747 c -9.08579,-2.25583 -20.93959,-11.91717 -25.17455,-20.5183 l -2.49406,-5.06539 v -21.2131 -21.2131 l 1.91517,-2.05311 c 4.98786,-5.34714 15.66414,-8.08282 25.71192,-6.5884 16.8202,2.50169 23.71855,7.34738 42.64674,29.95686 5.26978,6.29468 10.94207,12.13161 14.51693,14.9383 3.22714,2.53368 5.89467,4.8507 5.92784,5.14895 0.0332,0.29824 -1.57714,1.48199 -3.57849,2.63055 -4.51058,2.5886 -8.23258,5.39165 -15.12982,11.39434 -14.01907,12.20082 -15.59776,12.88601 -30.25964,13.13339 -6.10939,0.10307 -12.4463,-0.14487 -14.08204,-0.55099 z"
       id="chest-left" />
    <path
       style="fill:#222222;stroke-width:2.06838"
       d="m 228.84726,255.06165 c -5.99585,-1.61423 -7.41287,-2.53411 -16.97151,-11.01732 -4.81332,-4.27178 -10.73365,-9.04742 -13.15629,-10.61254 -8.06452,-5.21001 -7.50669,-4.47908 -4.90455,-6.42651 5.06154,-3.78804 14.01719,-13.00643 21.45302,-22.0824 9.03415,-11.02685 13.70561,-15.59706 20.29759,-19.85766 7.78387,-5.03096 11.00362,-5.80558 24.13114,-5.80558 11.29094,0 11.562,0.0393 15.56923,2.25912 7.24723,4.01457 7.02974,3.12393 7.02974,28.78756 v 22.38343 l -3.41395,4.78423 c -9.54157,13.37131 -20.59061,18.83243 -37.88469,18.72496 -4.46197,-0.0277 -9.92935,-0.53951 -12.14973,-1.13729 z"
       id="chest-right" />
  </g>
  <path
     style="fill:#222222;stroke-width:2.06838"
     d="m 66.466812,455.61825 c -1.62097,-3.71959 -2.161721,-16.79943 -1.065152,-25.76419 0.686524,-5.61253 2.019645,-9.77026 7.853079,-24.49218 3.864401,-9.75263 7.175584,-17.90379 7.358185,-18.11369 0.182601,-0.2099 1.029149,0.5754 1.881217,1.7451 1.735778,2.38284 4.724279,4.11994 9.369614,5.44619 5.622037,1.6051 7.449261,8.49005 3.988693,15.02934 -2.13035,4.02563 -2.494781,5.5896 -3.561439,15.28405 -1.108482,10.07457 -1.332113,10.75613 -3.529264,10.75613 -2.333501,0 -3.318188,-2.3843 -3.421654,-8.28509 -0.219418,-12.51371 -4.085894,-11.26457 -11.81993,3.81866 l -4.191112,8.17368 v 9.63738 c 0,10.27818 -0.655706,11.82788 -2.862237,6.76462 z"
     id="path31" />
  <path
     style="fill:#222222;stroke-width:2.06838"
     d="m 499.725,447.95758 c -0.27659,-11.68091 -0.86068,-13.53249 -7.51824,-23.83303 -5.12103,-7.92322 -6.98436,-7.29818 -7.7541,2.60106 -0.52105,6.70101 -1.4119,8.78339 -3.75756,8.78339 -1.81934,0 -2.18117,-1.17597 -3.53151,-11.47759 -0.75924,-5.79219 -1.94169,-10.78455 -3.4421,-14.53269 -2.11219,-5.27644 -2.21846,-5.98917 -1.40107,-9.39644 0.90352,-3.7663 2.93975,-5.96089 5.53075,-5.96089 2.05319,0 5.95424,-2.13878 8.76489,-4.80541 l 2.46183,-2.33567 0.82515,2.22992 c 0.45383,1.22646 3.38696,8.60743 6.51807,16.40216 7.22337,17.98225 8.2094,22.15586 8.32531,35.23908 0.074,8.35106 -0.17864,11.04238 -1.31235,13.98072 -2.52113,6.53424 -3.43115,4.84265 -3.70907,-6.89461 z"
     id="path32" />
  <g
     id="g51"
     inkscape:label="foraem-front">
    <path
       style="fill:#222222;stroke-width:2.06838"
       d="m 86.106839,387.93183 c -3.482534,-3.72806 -3.266349,-6.73997 1.231361,-17.15548 1.819451,-4.21337 6.118386,-14.55527 9.553188,-22.98201 C 108.95631,318.195 115.6221,306.90074 129.67062,292.2545 l 6.24582,-6.51157 0.0302,7.90255 c 0.0317,8.2892 0.47548,9.87252 3.76263,13.4242 3.15091,3.40446 6.10688,4.54906 13.00321,5.03503 l 6.39372,0.45056 -1.6449,2.0857 c -0.90469,1.14714 -4.40344,7.32239 -7.77498,13.72279 -3.37154,6.4004 -7.92162,14.23487 -10.11129,17.40992 -5.24761,7.60912 -15.1646,17.96818 -24.75548,25.85899 -4.26312,3.50746 -10.24624,9.14496 -13.29581,12.52779 -5.524748,6.12848 -5.55844,6.15059 -9.369538,6.15059 -3.290991,0 -4.135064,-0.33208 -6.047373,-2.37922 z"
       id="forearm-right" />
    <path
       style="fill:#222222;stroke-width:2.06838"
       d="m 470.08182,386.67224 c -3.38632,-4.93667 -8.03958,-9.55072 -15.44204,-15.31191 -7.60737,-5.92068 -21.34734,-20.51858 -26.16167,-27.79523 -2.3637,-3.57263 -6.19248,-10.28772 -8.50841,-14.92243 -2.31593,-4.6347 -5.45506,-10.27121 -6.97584,-12.52556 -1.52079,-2.25436 -2.76507,-4.16671 -2.76507,-4.24968 0,-0.083 2.16004,-0.0133 4.80008,0.15481 12.36473,0.78732 18.8571,-5.29356 19.00184,-17.79752 0.0967,-8.34986 0.32561,-8.33675 8.26709,0.47343 13.1565,14.59566 18.83773,24.63119 31.35942,55.39439 3.77297,9.26941 7.9708,19.26659 9.32851,22.21594 3.73121,8.10534 4.00117,9.4082 2.57305,12.41776 -1.82007,3.83551 -5.50368,6.35088 -9.30049,6.35088 -2.97975,0 -3.3227,-0.24458 -6.17647,-4.40488 z"
       id="forearm-left" />
  </g>
  <g
     id="g50"
     inkscape:label="biceps">
    <path
       style="fill:#222222;stroke-width:2.06838"
       d="m 411.01775,307.52802 c -3.82968,-1.6062 -7.18068,-4.93312 -18.22521,-18.09424 -15.30995,-18.24397 -17.62054,-21.30702 -20.26544,-26.86496 -2.66265,-5.59524 -3.64828,-14.56151 -2.19051,-19.92721 1.13233,-4.16789 4.71744,-8.25777 8.26484,-9.42852 3.78897,-1.25047 12.38767,-0.48571 18.97734,1.68783 8.40239,2.77145 13.87214,6.89366 18.56134,13.98854 4.57656,6.92446 10.25665,19.84586 12.56324,28.57957 2.05733,7.78994 2.34822,21.70274 0.52541,25.12918 -2.3582,4.43282 -4.07061,5.33978 -10.45979,5.53992 -3.22242,0.10094 -6.71047,-0.17361 -7.75122,-0.61011 z"
       id="bicep-left" />
    <path
       style="fill:#222222;stroke-width:2.06838"
       d="m 147.19404,308.32029 c -9.65478,-2.89327 -10.89543,-18.90888 -3.14354,-40.57993 7.41117,-20.71857 17.05628,-30.87792 32.40297,-34.13061 15.15652,-3.21239 22.55305,1.18032 23.63065,14.03394 0.78485,9.36165 -2.62557,16.99995 -13.25479,29.68667 -3.17052,3.78424 -9.16475,11.0172 -13.3205,16.07324 -4.15575,5.05604 -8.84193,10.20106 -10.41373,11.43337 -4.92317,3.85983 -10.53928,5.09011 -15.90106,3.48332 z"
       id="bicep-right " />
  </g>
  <g
     id="g49"
     inkscape:label="shoulder-front">
    <path
       style="fill:#222222;stroke-width:2.06838"
       d="m 163.55527,233.43678 c 0,-2.51383 9.7769,-30.63853 12.35502,-35.54103 5.21863,-9.92367 14.61467,-17.04335 26.80059,-20.30766 6.32374,-1.69398 30.88318,-1.95506 35.34439,-0.37572 1.58001,0.55934 2.87148,1.2488 2.86992,1.53213 -0.002,0.28333 -2.17869,1.64015 -4.83807,3.01516 -6.67949,3.45357 -12.04844,8.46732 -22.68084,21.18029 -10.43691,12.47925 -19.45561,21.22702 -24.51875,23.78219 -1.92465,0.97129 -6.60193,2.53579 -10.39396,3.47666 -3.79203,0.94087 -8.61825,2.36075 -10.72493,3.15529 -4.61867,1.74195 -4.21337,1.73399 -4.21337,0.0827 z"
       id="shoulder-right" />
    <path
       style="fill:#222222;stroke-width:2.06838"
       d="m 399.50386,232.73064 c -3.16003,-1.0168 -8.09918,-2.57038 -10.97588,-3.45241 -10.25131,-3.14316 -16.6327,-8.43114 -33.10591,-27.43336 -11.85421,-13.6741 -15.07519,-16.65401 -22.50325,-20.81902 -4.67724,-2.62259 -4.50257,-2.95371 2.35732,-4.46872 2.95339,-0.65225 7.95921,-0.82266 15.70437,-0.53462 16.99037,0.63187 26.30842,3.74215 34.54308,11.53014 4.96652,4.69713 8.18132,9.98392 12.2738,20.18449 2.76882,6.90132 8.60107,24.80665 8.60107,26.40577 0,0.81501 0.0754,0.83046 -6.8946,-1.41227 z"
       id="shoulder-left " />
  </g>
  <g
     id="g48"
     inkscape:label="trap-front">
    <path
       style="fill:#222222;stroke-width:2.06838"
       d="m 242.84319,176.05741 c -0.84268,-0.1888 -3.12284,-0.85044 -5.06702,-1.47032 -1.94419,-0.61987 -6.25332,-1.37342 -9.57584,-1.67455 -3.32252,-0.30113 -6.02132,-0.89223 -5.99733,-1.31357 0.0802,-1.40922 5.9915,-4.74039 16.85615,-9.49893 5.92417,-2.59469 12.04313,-5.5819 13.59768,-6.63825 l 2.82646,-1.92062 v 7.92104 7.92104 l -2.48972,2.33271 c -4.88301,4.57507 -6.33526,5.19621 -10.15038,4.34145 z"
       id="trap-front-right" />
    <path
       style="fill:#222222;stroke-width:2.06838"
       d="m 321.74807,175.69061 c -0.84267,-0.46267 -2.99723,-2.24761 -4.78792,-3.96654 l -3.25578,-3.12533 v -7.50117 c 0,-4.12564 0.15508,-7.50117 0.34463,-7.50117 0.18955,0 1.82701,0.9816 3.63882,2.18132 1.8118,1.19973 6.39676,3.48907 10.18879,5.08743 8.48994,3.57854 15.38339,6.98339 18.27972,9.02883 2.82443,1.99465 1.90076,2.49935 -5.79438,3.16613 -3.24514,0.28119 -7.86678,1.18784 -10.27031,2.01478 -4.96899,1.70958 -6.18749,1.7995 -8.34357,0.61572 z"
       id="trap-front-left" />
  </g>
  <path
     style="fill:#222222;stroke-width:2.06838"
     d="m 282.97523,182.98578 c -3.10527,-3.74162 -11.1008,-6.87014 -20.15215,-7.8852 -3.24766,-0.36422 -6.08289,-0.84025 -6.30049,-1.05786 -0.21761,-0.2176 0.23517,-1.35747 1.00617,-2.53304 1.24072,-1.89173 1.44585,-4.45218 1.78486,-22.27815 l 0.38304,-20.14077 4.5964,3.09361 c 2.52802,1.70148 6.83715,4.37123 9.57583,5.93277 4.56083,2.60048 5.46245,2.83531 10.72494,2.79338 6.73579,-0.0537 11.23238,-1.89002 19.64402,-8.02243 2.87119,-2.09321 5.46053,-3.80583 5.75408,-3.80583 0.29355,0 0.64567,8.8768 0.78247,19.72622 0.21408,16.97818 0.43596,20.09039 1.59267,22.3403 0.73917,1.43774 1.19195,2.76606 1.00618,2.95183 -0.18577,0.18577 -3.03128,0.63915 -6.32337,1.00751 -10.36312,1.15955 -13.8793,2.43181 -18.89706,6.83746 -2.99668,2.63111 -3.73427,2.7793 -5.17759,1.0402 z"
     id="neck-front" />
  <path
     style="fill:#222222;stroke-width:2.06838"
     d="m 279.79358,137.20841 c -4.71133,-1.73013 -11.1254,-5.91734 -16.29934,-10.64048 -3.93176,-3.58919 -5.07791,-5.1878 -6.04166,-8.42673 -1.40839,-4.73326 -1.54621,-4.93774 -5.12466,-7.60282 -3.18436,-2.37157 -4.5053,-6.26892 -4.5053,-13.292586 0,-4.076938 0.18663,-4.517846 3.0179,-7.129922 l 3.01791,-2.784252 0.75954,-9.665384 c 0.97941,-12.463128 3.32257,-18.296056 7.34977,-18.296056 0.90782,0 4.52608,0.727152 8.04057,1.615893 9.10966,2.303639 24.648,1.839048 32.83377,-0.981718 l 5.60814,-1.932531 2.56451,3.358631 c 2.82001,3.693255 3.12647,4.98982 4.21268,17.82261 l 0.74273,8.774915 3.1946,2.751383 3.19459,2.751383 -0.38796,5.422201 c -0.48242,6.742503 -2.43877,10.970643 -5.78824,12.509773 -2.05608,0.94481 -2.72241,1.89819 -3.7479,5.36247 -1.70244,5.75118 -2.806,7.22801 -9.19499,12.3051 -9.45612,7.51443 -17.46641,10.27423 -23.44666,8.07812 z"
     id="path42" />
  <path
     style="fill:#222222;stroke-width:2.06838"
     d="m 318.0984,73.414951 c -0.63668,-7.536108 -1.87718,-11.21535 -5.01893,-14.885771 -3.09045,-3.610494 -3.65784,-3.6384 -14.59139,-0.717639 -9.22175,2.463477 -22.38184,2.004692 -31.01095,-1.0811 l -6.00872,-2.148736 -2.03498,1.508845 c -5.0291,3.728862 -7.72683,9.86077 -7.7622,17.643383 -0.0223,4.915083 -1.07028,5.206251 -2.22553,0.618354 -2.90584,-11.540137 2.58034,-29.051506 10.85312,-34.642175 4.76038,-3.217015 9.49869,-4.198333 22.4938,-4.658535 12.85877,-0.455374 19.96425,0.788518 26.39505,4.620738 4.89853,2.919108 8.33717,8.560904 10.23026,16.784823 1.42047,6.170757 1.48913,16.970242 0.12811,20.149546 -0.95133,2.222265 -0.99916,2.116805 -1.44764,-3.191733 z"
     id="path43" />
  <path
     style="fill:#222222;stroke-width:2.06838"
     d="m 324.8126,268.70607 c -0.27855,-2.84849 -0.66689,-5.75887 -0.86297,-6.4675 -0.3842,-1.3885 0.64604,-1.61756 11.58765,-2.5764 l 5.36246,-0.46993 -5.7455,5.86262 c -3.16002,3.22444 -6.66568,6.53034 -7.79034,7.34645 l -2.04484,1.48384 z"
     id="path44" />
  <path
     style="fill:#222222;stroke-width:2.06838"
     d="m 283.09059,253.42553 c -0.93798,-0.65699 -3.91867,-1.37219 -6.62375,-1.58932 l -4.91832,-0.3948 3.71297,-3.92592 c 2.04214,-2.15926 5.02614,-5.90369 6.63112,-8.32096 1.60498,-2.41728 3.00894,-4.39504 3.11992,-4.39504 0.11098,0 1.14129,1.60314 2.28957,3.56254 1.14829,1.95941 4.02338,5.66525 6.3891,8.23522 l 4.3013,4.67267 -4.62928,0.38304 c -2.5461,0.21066 -5.51531,0.96445 -6.59824,1.67507 -1.79267,1.17635 -2.12165,1.18508 -3.67439,0.0975 z"
     id="path45" />
  <path
     style="fill:#222222;stroke-width:2.06838"
     d="m 236.34487,266.87373 c -4.22065,-3.84734 -7.67392,-7.06571 -7.67392,-7.15193 0,-0.41145 16.54104,0.5932 17.0228,1.03392 0.3038,0.27792 0.0293,2.2217 -0.61008,4.31952 -0.64933,2.1306 -0.96236,4.9132 -0.70917,6.30394 0.24931,1.36934 0.27126,2.48971 0.0488,2.48971 -0.22247,0 -3.85776,-3.14782 -8.07842,-6.99516 z"
     id="path46" />
  <path
     style="fill:#222222;stroke-width:2.06838"
     d="m 279.23136,282.81636 -4.97943,-1.61578 5.36247,-0.59565 c 2.94935,-0.32761 6.22429,-0.37652 7.27763,-0.1087 1.05334,0.26783 5.36247,0.7282 9.57584,1.02305 l 7.66066,0.53609 -6.22373,0.12013 c -3.42306,0.0661 -7.68934,0.63722 -9.48064,1.26923 -3.80479,1.34241 -2.93641,1.40177 -9.1928,-0.62837 z"
     id="path47" />
</svg>
